Title: Grand Prix (2010)
Year: 2010
Country: South Korea
Language: Korean
Film Genre: Drama | Romance
Subtitles: English(srt/idx,sub), Korean(smi/idx,sub)
Director: Yang Yoon-ho
Cast: Kim Tae-hee, Yang Dong-geun, Park Geun-hyeong, Ko Doo-sim, Park Sa-rang, Woo Hyeon
Info Link: http://www.hancinema.net/korean_movie_Grand_Prix.php


PLOT or SYNOPSIS
Grand Prix is a thrilling sports drama with comedic undertones that highlights the triumph of the indomitable sportsmanship of a female horse racer. The once-successful horse racer Ju-hee hasnâ™t been in the field after the devastating arm injury and the loss of her own horse. To overcome depression, Ju-hee visits a mountain in Jeju island where she accidentally meets another racer Woo-suk who has the record of championing at the Japan Cup. Through Woo-sukâ™s encouragement, Ju-hee trains herself again and returns to the Grand Prix championship.


General
Complete name : Grand.Prix.2010.DVDRip.x264.AC3-BAUM.mkv
Format : Matroska
File size : 1.46 GiB
Duration : 1h 48mn
Overall bit rate : 1 928 Kbps
Encoded date : UTC 2011-01-17 08:39:26
Writing application : mkvmerge v4.4.0 ('Die Wiederkehr') built on Oct 31 2010 21:52:48
Writing library : libebml v1.0.0 + libmatroska v1.0.0

Video #0
ID : 1
Format : AVC
Format/Info : Advanced Video Codec
Format profile : High@L3.0
Format settings, CABAC : Yes
Format settings, ReFrames : 4 frames
Format settings, GOP : M=4, N=10
Muxing mode : Container profile=Unknown@3.0
Codec ID : V_MPEG4/ISO/AVC
Duration : 1h 48mn
Bit rate : 1 478 Kbps
Width : 720 pixels
Height : 304 pixels
Display aspect ratio : 2.35:1
Frame rate : 23.976 fps
Color space : YUV
Chroma subsampling : 4:2:0
Bit depth : 8 bits
Scan type : Progressive
Bits/(Pixel*Frame) : 0.282
Stream size : 1.09 GiB (75%)
Writing library : x264 core 112 r1867 22bfd31

Audio #1
ID : 2
Format : AC-3
Format/Info : Audio Coding 3
Mode extension : CM (complete main)
Codec ID : A_AC3
Duration : 1h 48mn
Bit rate mode : Constant
Bit rate : 448 Kbps
Channel(s) : 6 channels
Channel positions : Front: L C R, Side: L R, LFE
Sampling rate : 48.0 KHz
Bit depth : 16 bits
Stream size : 346 MiB (23%)